# xmcd
#
# Track frame offsets:
#	150
#	19437
#	38720
#	62395
#	86045
#
# Disc length: 1608 seconds
#
# Revision: 1
# Processed by: cddbd v1.5.1PL0 Copyright (c) Steve Scherf et al.
# Submitted via: CDex 1.50Beta5
#
DISCID=37064605
DTITLE=TWIGY featuring 椎名純平 - このまま
DYEAR=2001
DGENRE=Rock
TTITLE0=TWIGY featuring 椎名純平/このまま
TTITLE1=TWIGY featuring 椎名純平/このまま<Instrumental>
TTITLE2=TWIGY feat.MACKA-CHIN,D.O&Q/一等賞
TTITLE3=TWIGY feat.MACKA-CHIN,D.O&Q/一等賞<Instrumental>
TTITLE4=TWIGY feat.MACKA-CHIN,D.O&Q/一等賞<Screwed Out Mix>
EXTD=
EXTT0=
EXTT1=
EXTT2=
EXTT3=
EXTT4=
PLAYORDER=
